<svg xmlns="http://www.w3.org/2000/svg"><style>:root svg:not(:target){display:none}</style><svg fill="none" id="about-ecology" viewBox="0 0 33 38"><path d="M16.5 38C25.575 38 33 30.645 33 21.656c-9.075 0-16.5 7.253-16.5 16.344ZM4.744 16.65c0 2.554 2.062 4.495 4.537 4.495.928 0 1.856-.306 2.578-.817v.306c0 2.554 2.063 4.495 4.538 4.495 2.578 0 4.537-2.043 4.537-4.495v-.306c.722.51 1.65.817 2.578.817 2.579 0 4.538-2.043 4.538-4.494 0-1.84-1.031-3.371-2.578-4.086 1.547-.715 2.578-2.248 2.578-4.087 0-2.553-2.063-4.494-4.538-4.494-.928 0-1.856.306-2.578.817v-.306C20.934 1.94 18.872 0 16.397 0c-2.578 0-4.538 2.043-4.538 4.495V4.8a4.542 4.542 0 0 0-2.578-.817c-2.578 0-4.537 2.043-4.537 4.494 0 1.84 1.031 3.372 2.578 4.087-1.444.715-2.578 2.247-2.578 4.086ZM16.5 7.969c2.578 0 4.538 2.043 4.538 4.494 0 2.554-2.063 4.495-4.538 4.495-2.578 0-4.537-2.043-4.537-4.495 0-2.451 1.959-4.494 4.537-4.494ZM0 21.656C0 30.646 7.425 38 16.5 38c0-9.091-7.425-16.344-16.5-16.344Z" fill="#63D1BB"></path></svg><svg fill="none" id="about-likes" viewBox="0 0 34 27"><path d="M34 8.45C34 3.788 29.982 0 25.036 0A9.248 9.248 0 0 0 17 4.662C15.558 1.942 12.467 0 8.964 0 4.018 0 0 3.788 0 8.45 0 17.288 15.146 27 17 27c1.958 0 17-9.615 17-18.55Z" fill="#63D1BB"></path></svg><svg fill="none" id="about-manually" viewBox="0 0 35 34"><path d="M.306 13.953a16.044 16.044 0 0 0 0 6.232l4.176-3.165-4.176-3.067ZM24.852 1.586C19.963-.59 14.259-.59 9.269 1.982l7.638 5.54 7.945-5.936ZM34.528 13.062l-4.889 3.66 4.99 3.66c.51-2.373.51-4.946-.1-7.32ZM9.37 32.057c4.89 2.473 10.899 2.671 15.991.099l-8.25-6.035-7.74 5.936ZM8.046 14.249 1.732 9.698c-.306.692-.612 1.385-.815 2.078l5.398 3.957 1.731-1.484ZM18.945 24.835l8.453 6.134c.306-.198.611-.396.815-.594.306-.198.611-.495.917-.791l-8.454-6.134-1.731 1.385ZM11.611 11.578 4.074 6.137c-.51.495-.917 1.088-1.324 1.682l7.028 5.144 1.833-1.385ZM22.51 22.163l8.25 6.035c.509-.494.916-1.088 1.324-1.681l-7.843-5.739-1.732 1.386ZM15.176 8.907 7.333 3.169c-.203.099-.407.297-.61.396-.408.296-.816.593-1.121.989l7.843 5.64 1.731-1.287ZM26.074 19.394l7.13 5.144c.306-.692.611-1.286.917-1.979l-6.213-4.55-1.834 1.385ZM26.89 2.674.916 22.362c.203.692.509 1.385.815 2.077L28.722 3.96c-.509-.494-1.12-.89-1.833-1.286ZM31.269 6.532c-.306-.395-.611-.791-.917-1.088L2.852 26.22c.204.494.51.89.815 1.187.101.198.305.396.407.494L31.778 7.127c-.204-.198-.306-.396-.51-.594ZM32.898 8.907 5.704 29.484c.509.495 1.12.99 1.731 1.385l26.482-19.984c-.306-.692-.611-1.385-1.019-1.978Z" fill="#63D1BB"></path></svg><svg fill="none" id="about-packing" viewBox="0 0 33 32"><path d="M3.028 32h12.614V18.272H3.028V32ZM31.385 8.691h-7.367c.505-.296 1.01-.493 1.413-.79 1.615-1.086 2.422-2.568 2.422-3.95 0-1.186-.605-2.173-1.413-2.865C25.633.396 24.523 0 23.413 0c-1.211 0-2.422.395-3.33 1.086-1.514.988-2.624 2.47-3.432 4.05 0 .099-.1.197-.1.197-.303-.592-.606-1.185-1.01-1.777-.706-.988-1.514-1.877-2.523-2.47C12.01.494 10.9 0 9.688 0c-1.21 0-2.321.494-3.23 1.284-.807.79-1.412 1.876-1.412 3.062 0 .691.202 1.481.605 2.173.606.888 1.413 1.58 2.624 2.172h-6.66C.706 8.691 0 9.383 0 10.271V16.1h15.541V8.69h1.918V16.1H33v-5.827c0-.89-.706-1.58-1.615-1.58ZM8.881 6.42c-.606-.395-1.01-.79-1.211-1.087-.202-.395-.303-.691-.303-.987 0-.494.202-.988.706-1.482.404-.395 1.01-.691 1.615-.691.707 0 1.413.197 2.018.691a7.6 7.6 0 0 1 2.624 3.16c.303.692.606 1.383.808 2.075-3.129-.297-5.147-.988-6.257-1.68Zm10.596-1.58c.606-.79 1.211-1.482 1.918-1.877.706-.494 1.412-.691 2.018-.691.605 0 1.11.197 1.514.493.403.297.605.692.605 1.186 0 .493-.303 1.284-1.514 2.074-1.11.79-3.128 1.679-6.156 2.271a10.88 10.88 0 0 1 1.615-3.456ZM17.46 32h12.614V18.272H17.46V32Z" fill="#63D1BB"></path></svg><svg fill="none" id="about-style" viewBox="0 0 47 27"><path d="M43.066 0H3.933C1.715 0 0 1.681 0 3.857v19.286C0 25.319 1.715 27 3.933 27h39.133C45.286 27 47 25.319 47 23.143V3.857C47 1.78 45.184 0 43.066 0ZM3.026 24.725V2.77H43.57v21.956H3.026Z" fill="#63D1BB"></path><path d="M6.96 20.868h32.677V6.627H6.96v14.241ZM23.5 8.506c2.925 0 5.346 2.373 5.346 5.242 0 2.868-2.421 5.241-5.346 5.241-2.925 0-5.346-2.373-5.346-5.242 0-2.967 2.421-5.241 5.346-5.241Z" fill="#63D1BB"></path></svg><svg fill="none" id="about-support" viewBox="0 0 55 23"><path d="M40.947 5.75A47.823 47.823 0 0 0 28.41 4.065c-2.932 0-5.56.198-7.785.594L13.75 0H.101l5.864 6.147h8.493c-4.651 1.586-6.875 3.47-6.875 3.47v3.767s2.325 1.883 6.976 3.47H5.864L0 23h13.649l6.875-4.66c2.325.397 4.853.595 7.785.595 4.55 0 8.796-.694 12.537-1.685-1.214-1.784-1.921-3.668-1.921-5.85.1-1.982.91-3.865 2.022-5.65ZM44.485 6.741c-1.314 1.586-2.022 3.173-2.022 4.759 0 1.586.708 3.172 2.022 4.759C50.955 14.077 55 11.499 55 11.499s-4.044-2.577-10.515-4.758Z" fill="#63D1BB"></path></svg><svg fill="none" id="burger-close" viewBox="0 0 21 20"><path d="M21 1.366 19.566 0 10.55 8.585 1.434 0 0 1.366l9.015 8.683L0 18.634 1.434 20l9.117-8.585L19.566 20 21 18.634l-9.015-8.585L21 1.366Z" fill="#000"></path></svg><svg fill="none" id="burger" viewBox="0 0 20 14"><path d="M20 0H0v2h20V0ZM20 6H0v2h20V6ZM20 12H0v2h20v-2Z" fill="#231F20"></path></svg><svg fill="none" id="cart" viewBox="0 0 21 18"><path d="M20.188 6.857h-3.55L13.188.381C12.985 0 12.58-.095 12.174.095s-.507.572-.304.953l3.145 5.81H5.783l3.145-5.81c.202-.381 0-.762-.305-.953-.406-.19-.811 0-1.014.286l-3.45 6.476H.812c-.406 0-.812.286-.812.762 0 .381.304.762.812.762h.202l.914 2.857c-.203.095-.305.286-.305.572 0 .38.305.666.71.666L4.058 18h12.884l1.725-5.524c.405 0 .71-.286.71-.667 0-.19-.102-.476-.304-.57l.912-2.858h.203c.406 0 .812-.286.812-.762 0-.476-.406-.762-.812-.762Zm-4.565 9.62H5.073L3.854 12.38h13.087l-1.319 4.095Zm1.623-5.525H3.348l-.812-2.666h15.522l-.812 2.666Z" fill="#000"></path></svg><svg fill="none" id="catalog-play" viewBox="0 0 101 77"><path d="M97 18.1s-.9-7-3.8-10.1c-3.6-4-7.7-4.1-9.5-4.3-13.3-1-33.3-1-33.3-1h-.1s-20 0-33.3 1c-1.9.2-5.9.3-9.5 4.3-2.8 3.1-3.8 10.1-3.8 10.1s-.9 8.2-.9 16.4v7.7c0 8.2.9 16.4.9 16.4s.9 7 3.8 10.1c3.6 4 8.4 3.9 10.5 4.3 7.6.8 32.4 1 32.4 1s20 0 33.3-1c1.9-.2 5.9-.3 9.5-4.3C96 65.6 97 58.6 97 58.6s.9-8.2.9-16.4v-7.7c0-8.2-.9-16.4-.9-16.4Z" fill="#63D1BB"></path><path d="M50.3 76.8c-1 0-25-.3-32.6-1h-.2c-.3-.1-.7-.1-1.1-.2-2.5-.3-7.2-.9-10.8-5C2.2 67 1.2 59.8 1.1 59c0-.3-1-8.5-1-16.7v-7.7c0-8.3.9-16.4.9-16.7v-.1c.1-.8 1.2-7.9 4.5-11.6 4-4.4 8.5-4.9 10.7-5.1.2 0 .4 0 .5-.1h.1c13.3-1 33.3-1 33.5-1h.1c.2 0 20.2 0 33.5 1h.1c.2 0 .3 0 .5.1 2.2.2 6.7.7 10.7 5.1 3.4 3.6 4.4 10.8 4.5 11.6 0 .3 1 8.5 1 16.8v7.7c0 8.3-.9 16.4-1 16.7v.1c-.1.8-1.2 8-4.5 11.6-4 4.4-8.5 4.9-10.7 5.1-.2 0-.4 0-.5.1h-.1c-13.3.9-33.4.9-33.6.9Zm-31.9-6.4c7.5.7 31.2 1 32 1 .7 0 20.1 0 33-1 .2 0 .4 0 .6-.1 1.8-.2 4.6-.5 7.2-3.3 1.8-2 2.9-6.9 3.1-8.6.1-.5.9-8.4.9-16.1v-7.7c0-7.8-.9-15.6-1-16.1-.3-2.4-1.4-6.8-3.1-8.5-2.6-2.9-5.4-3.1-7.2-3.3-.2 0-.4 0-.6-.1-13.1-1-32.8-1-33-1h-.1c-.2 0-20 0-33 1-.2 0-.4 0-.6.1-1.8.2-4.6.5-7.2 3.3-1.8 2-2.9 6.9-3.1 8.6-.1.6-.9 8.4-.9 16.1v7.7c0 7.7.9 15.6.9 16.1.3 2.4 1.4 6.8 3.1 8.5 2.3 2.6 5.3 3 7.5 3.3.6-.1 1 0 1.5.1Z" fill="#fff"></path><path d="M38.4 20.5v35.7l29.8-17.8-29.8-17.9Z" fill="#fff"></path></svg><svg fill="none" id="catalog-video" viewBox="0 0 32 22"><path d="m26 10 6-4v16l-6-4v-8Zm-2 0v8c0 2.2-1.8 4-4 4H4c-2.2 0-4-1.8-4-4v-8c0-2.2 1.8-4 4-4h10c0-1.1.9-2 2-2V2H5c-.6 0-1-.4-1-1s.4-1 1-1h12c.6 0 1 .4 1 1v3c1.1 0 2 .9 2 2 2.2 0 4 1.8 4 4Zm-12 0H4v8h8v-8Zm8 1c0-.6-.4-1-1-1h-4c-.6 0-1 .4-1 1s.4 1 1 1h4c.6 0 1-.4 1-1Z" fill="#63D1BB"></path></svg><svg fill="none" id="contacts-flag" viewBox="0 0 47 81"><path d="M7.766 3.862v38.52L47 23.071 7.766 3.862ZM0 80.9V0h3.833v80.9H0Z" fill="#63D1BB"></path><path d="M3.833.1H0V81h3.833V.1Z" fill="#231F20"></path></svg><svg fill="none" id="form-mail" viewBox="0 0 32 21"><path d="M28 0H4C1.8 0 0 1.8 0 4v13c0 2.2 1.8 4 4 4h24c2.2 0 4-1.8 4-4V4c0-2.2-1.8-4-4-4ZM2 5.3l7 5.3-7 5.3V5.3ZM30 17c0 1.1-.9 2-2 2H4c-1.1 0-2-.9-2-2l7.8-5.9 4.4 3.3c.5.4 1.2.6 1.8.6.6 0 1.3-.2 1.8-.6l4.4-3.3L30 17Zm0-1.2-7-5.3 7-5.3v10.6Zm-12.8-2.2c-.4.3-.8.4-1.2.4-.4 0-.9-.1-1.2-.4l-4.1-3.1-.8-.6L2 4c0-1.1.9-2 2-2h24c1.1 0 2 .9 2 2l-12.8 9.6Z" fill="#000"></path></svg><svg fill="none" id="form-phone" viewBox="0 0 25 24"><g fill="#000"><path d="M17.44 24h-1.11c-4.939-.593-8.568-2.864-11.189-5.728C2.521 15.408.403 11.753 0 6.716V5.333c.1-.888.504-1.481 1.109-2.074.605-.69 1.613-1.481 2.52-1.58.706 0 1.815.494 2.218 1.087.403.493.605 1.58.806 2.37.202.889.605 1.975.504 2.765-.201 1.186-1.814 1.68-2.217 2.568 1.612 3.655 4.133 6.42 7.56 8.198.806-.494 1.613-1.877 2.823-1.877.403 0 1.008.198 1.41.297.505.098.908.296 1.311.493.706.297 2.017.593 2.42 1.186.403.592.705 1.58.605 2.172-.303 1.284-2.42 2.667-3.63 3.062ZM12.6 1.481c5.948 0 10.888 4.741 10.888 10.667H25C25 5.432 19.456 0 12.6 0v1.481Z"></path><path d="M12.6 9.185v1.58c.807 0 1.412.593 1.412 1.383h1.613c0-1.58-1.31-2.963-3.024-2.963ZM12.6 6.124c3.327 0 6.15 2.666 6.15 6.024h1.613c0-4.148-3.427-7.506-7.661-7.506v1.482H12.6Z"></path></g></svg><svg fill="none" id="form-tick" viewBox="0 0 24 17"><path d="m23.963 1.684-.994-.992L8.766 14.786 1.735 7.775l-.994.991 7.03 7.012.995.991 1.065-.991L23.963 1.684Z" fill="#000"></path></svg><svg fill="none" id="hero-interior" viewBox="0 0 40 62"><g opacity=".5" fill="#149080"><path d="M15.162 37.717c-.3.995-.2 2.19 0 3.582.499 2.588 1.696 5.971 2.394 9.654h5.087c.699-3.583 1.896-6.967 2.494-9.654.3-1.393.3-2.687 0-3.582-.3-.896-.898-1.593-1.995-2.29h-5.985c-1.197.697-1.796 1.394-1.995 2.29ZM26.933 57.621H13.167c-1.297 0-2.294.995-2.294 2.19V62h18.354v-2.19c0-1.194-.998-2.189-2.294-2.189ZM34.015 2.19h-11.67C22.344.994 21.346 0 20.05 0s-2.294.995-2.294 2.19H6.085L0 27.566c.798-.498 1.596-.995 2.594-.995 1.396 0 2.194.796 2.892 1.393.699.597 1.197.796 1.397.796.299 0 .798-.299 1.496-.796.698-.498 1.596-1.393 2.893-1.393 1.297 0 2.194.796 2.893 1.393.698.497 1.197.796 1.496.796.1 0 .3-.1.598-.199.2-.1.5-.398.898-.597.499-.398 1.097-.995 1.995-1.194.3-.1.599-.1.898-.1 1.297 0 2.194.796 2.893 1.393.698.498 1.197.797 1.496.797.3 0 .798-.299 1.396-.797.699-.597 1.596-1.393 2.893-1.393 1.397 0 2.195.796 2.893 1.393.3.299.598.498.898.598.2.1.399.199.598.199.3 0 .798-.299 1.397-.896.698-.597 1.596-1.393 2.892-1.393.998 0 1.796.497 2.594.995L34.015 2.189ZM23.442 53.143h-6.883c-.699 0-1.098.497-1.098 1.094 0 .597.5 1.095 1.098 1.095h6.883c.698 0 1.097-.498 1.097-1.095.1-.597-.4-1.094-1.098-1.094Z"></path><path d="M20.05 28.76c-.1 0-.3.1-.599.199-.2.1-.399.298-.598.398v3.682h2.294v-3.583c-.499-.398-.898-.696-1.097-.696Z"></path></g></svg><svg fill="none" id="hero-toy" viewBox="0 0 60 60"><path opacity=".5" d="M0 43.993 27.4 60V36.544L0 20.436v23.557Zm51.3-31.51V15c0 1.812-3.5 3.322-7.7 3.322-4.3 0-7.7-1.51-7.7-3.322v-4.127c.3 1.71 3.6 3.12 7.7 3.12 4.3 0 7.7-1.51 7.7-3.322S47.8 7.35 43.6 7.35h-1l-5-2.92V7.55c0 1.812-3.5 3.323-7.7 3.323-2.7 0-5-.604-6.4-1.51-.2-.202-.4-.403-.7-.605-.4-.402-.6-.805-.6-1.208V4.53L17.4 7.35h-1.1c-4.3 0-7.7 1.51-7.7 3.322s3.5 3.322 7.7 3.322c4.1 0 7.4-1.41 7.7-3.12V15c0 1.812-3.5 3.322-7.7 3.322-4.3 0-7.7-1.51-7.7-3.322v-2.416l-6 3.523 27.5 16.108 27.4-16.007-6.2-3.725ZM37.7 22.752c0 1.812-3.5 3.322-7.7 3.322-4.3 0-7.7-1.51-7.7-3.322v-4.128c.3 1.712 3.6 3.121 7.7 3.121s7.4-1.41 7.7-3.12v4.127Zm-5.1 13.993V60L60 43.993V20.738L32.6 36.745Zm-2.7-30.1c4.3 0 7.7-1.51 7.7-3.323C37.6 1.51 34.1 0 29.9 0c-4.3 0-7.7 1.51-7.7 3.322s3.4 3.322 7.7 3.322Z" fill="#149080"></path></svg><svg fill="none" id="html-academy" viewBox="0 0 27 35"><path d="M13.6 0h-.1L0 1.4v24.7l13.5 8 13.4-8V1.4L13.6 0ZM25 12.1 13.5 5.3v-.1h-.1l-.1-.1v.1L1.9 12.1v-9l11.5-1.2L25 3.1v9ZM13.4 6.8l11.5 6.7-4.5 2.6-7.1-4.2v1.4l5.9 3.5-.9.5-5-3v1.4l3.8 2.3-.8.5-3-1.8v1.4l1.9 1.1-1.8 1.1L2 13.6l11.4-6.8ZM1.9 15.1l11.4 6.8v1l-7.9-4.7v1.4l8 4.8v1.1l-8-4.7v1.4l8 4.8 8.1-4.9v-5.2l3.4-2v10l-11.5 6.9L1.9 25v-9.9Z" fill="#63D1BB"></path></svg><svg fill="none" id="logo-footer" viewBox="0 0 102 34"><path d="M19.22 21.381c-.1-2.685-.5-5.27-.5-7.956 0-2.187.4-4.375-.4-6.464 0-.199.1-.497.1-.696.2-.994-3.3-.497-3.8.497-.3.299-.5.597-.4.995 0 .1.1.199.1.298-.7 3.183-1.6 6.265-2.6 9.348-.4 1.194-.9 2.288-1.3 3.481-.6-1.094-1.2-2.188-1.6-3.381-1.4-3.381-2.6-6.862-4.3-10.144.2-1.492-3.2-1.392-3.9 0-.8 1.69-.7 3.381-.4 5.171.3 1.99.4 3.978.4 6.067 0 3.978.4 7.856.4 11.834-.4.398-.5.895-.1 1.392.2.2.4.398.6.498 1 .696 3.6.099 3.6-1.293 0-4.078-.3-8.155-.4-12.332v-1.193c.1.1.1.298.2.398.6 1.59 1.3 3.182 2.2 4.674.9 1.491 1.3 3.082 1.8 4.674-.2.199-.3.497-.2.696 0 .199.1.298.3.398.6.497 1.8.298 2.5 0 .3-.1.6-.299.8-.398.3-.2.9-.696.7-1.194 0-.099-.1-.198-.1-.298.5-1.293.7-2.585 1-3.878.3-1.393.8-2.785 1.3-4.078.1.597.1 1.194.2 1.89.2 2.585 0 5.072 0 7.558 0 .795.1 1.591.2 2.486.1.298.4 1.79.3 1.89-.8.497-.6 1.093.2 1.292.9.2 2.1-.1 2.8-.696 1.2-1.094.6-2.784.4-4.177-.5-2.386 0-4.972-.1-7.359ZM27.62 22.078c-.1-1.99-.8-3.879-.8-5.868 0-2.287.2-4.574-.2-6.862-.1-.696-4.1.1-3.9.995.3 2.088.2 4.177.2 6.364 0 1.99.5 3.879.7 5.868.3 2.088-.1 4.177.1 6.166.1.994.8 2.685.1 3.58-.4.497 1.5.298 1.6.298.8-.1 1.8-.398 2.3-.994.7-.796.2-2.387.1-3.382-.3-1.989-.1-4.176-.2-6.165ZM43.92 18.796c-2.1-2.785-5.9-.796-8.6-1.492-1.4-.398-1.4-2.287-1.4-3.381 0-1.393-.1-2.685-.3-4.078-.1-1.094 0-2.088.7-2.884.1-.1.9-.298.8-.298.4-.1.7-.1 1.1-.1 1.5-.099 4.6.2 4 2.487-.3.994 3.6.398 3.9-.597 1.2-4.575-7.3-3.68-9.7-3.083-2.2.597-4.6 1.79-4.8 4.376-.1 1.193.3 2.387.3 3.58.1 1.392-.2 2.785.3 4.077 1.1 2.984 5.5 1.591 7.8 1.691 3.8.298 2.7 5.47 2.7 7.856 0 1.293 1.2 3.382.2 4.476-.6.696-2 .696-2.8.795-.8.1-2.2.298-2.7-.497-1-1.392.1-3.78-.1-5.37-.1-.895-4.1-.1-3.9.994.3 2.586-1.4 6.066 2.4 6.564 2.4.298 5.2-.2 7.5-.895 1.2-.398 2.3-.895 3.2-1.79 1-.895.7-2.288.4-3.481-.5-3.083.9-6.464-1-8.95ZM61.32 18.597c-.1-3.78-.7-7.459-.7-11.238 0-1.989-4-1.293-4 .298 0 3.58.5 7.16.7 10.74v.2c-1.9 0-3.9.198-5.9.198.2-4.574-.6-9.149-.4-13.823 0-.596-3.9-.1-3.9.995-.2 4.475.6 8.85.5 13.326-.1 2.088-.2 4.276-.3 6.364 0 1.094.2 2.188.3 3.282.1.995.5 2.288.2 3.282-.2.796 3.6.298 3.9-.696.5-1.79-.2-3.978-.4-5.768-.2-1.69 0-3.48.1-5.171 2-.1 4.1-.299 6.1 0 .1 1.392.2 2.784.3 4.077.1 1.193.2 2.287.2 3.48 0 .995.1 2.487-.2 3.481-.8 2.089 3.1 1.89 3.7.398.7-1.89.5-4.177.4-6.166-.2-2.486-.6-4.873-.6-7.26ZM78.22 22.973c-.9-2.785-2.4-5.171-3.6-7.757 1-1.89 2-3.878 2.9-5.867.8-1.79 1.4-3.78 3.1-5.072.6-.398.6-.895-.3-.995-.9-.1-2.1.2-2.8.696-1.4 1.293-2.4 2.685-3.1 4.376-.9 2.089-1.9 4.077-2.9 6.066-.1.1-.1.299-.2.398-.5.299-.8.796-.6 1.293-.8 1.591-1.6 3.083-2.5 4.575-.3-5.47-1-11.04-1.2-16.509 0-1.293-4-.497-3.9.995.2 6.862 1.2 13.624 1.3 20.486v.1c-.3.298-.2.497.1.596 0 1.79-.1 3.48-.2 5.27-.5.697.5 1.095 1.1 1.095h.1c.7 0 2.6-.299 2.7-1.393.2-2.088.3-4.176.2-6.265 1.6-1.69 2.9-3.58 4.1-5.569.8 1.492 1.5 2.984 2 4.575.9 2.685 2.3 5.27 3.1 7.956.5 1.79 4.5.696 3.9-.995-1-2.784-2.4-5.27-3.3-8.055ZM101.721 18.398c-.2-.795-1.4-.795-2.3-.795v-.995c-.1-2.685-.2-5.37-.4-7.956-.2-2.486-1.6-3.281-4-3.182-2.4.1-5.2.497-7.5 1.392-2.6.995-4.1 2.884-4.6 5.669-.5 2.983.2 6.166.4 9.149.2 3.48.1 6.961.1 10.442 0 .597 3.9 0 3.9-.994v-8.255c0-.795-.1-1.59-.1-2.386 1.4-.597 3.7 0 5.1.1 1.1.099 2.2-.2 3.2-.3 0 2.288.1 4.575.2 6.863 0 1.193.5 3.48-.4 4.475-.4.497 1.5.298 1.6.298.8-.1 1.8-.398 2.3-.994.9-1.094.5-3.78.4-5.072-.1-1.89-.1-3.78-.1-5.669 1.1-.199 2.4-.895 2.2-1.79Zm-14.6-.1c-.1-1.192-.2-2.485-.3-3.679-.2-2.287.1-5.569 2.3-6.961.6-.398 1.7-.298 2.4-.398 1-.199 2-.398 2.8.199 1.2.796.9 3.68.9 4.873 0 1.989.2 3.978.3 5.967-.6.1-1.1.1-1.7.1-2.3-.2-4.6-.597-6.7-.1ZM24.22 6.663c.5-.1 1-.199 1.5-.497l.2-.2c.5-.297 1-.795.7-1.391-.5-1.094-.4-2.188-.4-3.382C26.22.2 25.22 0 24.42 0c-.7.1-2.2.597-2.2 1.492 0 .994-.1 1.989.1 2.983 0 .1-.1.199-.1.398-.1.199 0 .398.1.597v.397c.1.2.2.398.4.498.6.298 1.1.298 1.5.298Z" fill="#000"></path></svg><svg fill="none" id="reviews-arrow-left" viewBox="0 0 50 26"><path d="M50 11H7.7l8.1-8.2L13 0 0 13l13 13 2.8-2.8L7.7 15H50v-4Z" fill="#000"></path></svg><svg fill="none" id="search" viewBox="0 0 18 18"><path d="m17.693 16.057-3.477-3.477c1.023-1.33 1.534-2.966 1.534-4.705C15.75 3.477 12.273 0 7.875 0S0 3.477 0 7.875s3.477 7.875 7.875 7.875c1.739 0 3.375-.614 4.704-1.534l3.478 3.477c.204.205.409.307.818.307.614 0 1.125-.511 1.125-1.125 0-.204-.102-.511-.307-.818ZM2.25 7.875c0-3.068 2.557-5.625 5.625-5.625S13.5 4.807 13.5 7.875 10.943 13.5 7.875 13.5 2.25 10.943 2.25 7.875Z" fill="#000"></path></svg><svg fill="none" id="telegram" viewBox="0 0 28 23"><path fill-rule="evenodd" clip-rule="evenodd" d="M23.46 3.653c.18.15.265.382.227.611l-2.626 15.757a.657.657 0 0 1-1.012.439l-7.878-5.253a.657.657 0 0 1-.149-.956l2.611-3.263-4.36 2.906a.657.657 0 0 1-.658.041L4.363 11.31a.657.657 0 0 1 .073-1.205l18.383-6.566a.657.657 0 0 1 .642.115Zm-17.134 7.17 3.536 1.768 7.561-5.041a.656.656 0 0 1 .877.956l-4.805 6.006 6.438 4.292L22.208 5.15 6.326 10.823Z" fill="#231F20"></path></svg><svg fill="none" id="vkontakte" viewBox="0 0 28 23"><path d="M1 5.839c0-.855.515-1.316 1.545-1.383l3.97.025a.52.52 0 0 1 .533.377c.409 1.257.866 2.343 1.372 3.257.506.913 1.168 1.965 1.985 3.156.071.15.187.226.346.226.125 0 .223-.059.293-.176l.08-.277.027-4.35c0-.302-.075-.503-.226-.604-.151-.1-.431-.176-.84-.226-.32-.05-.48-.235-.48-.553 0-.067.01-.118.027-.151.373-1.09 1.44-1.635 3.198-1.635l1.492-.025c.675 0 1.234.16 1.678.478.444.318.666.821.666 1.509v5.708c.125.084.24.126.347.126.266 0 .497-.15.692-.453 1.954-2.582 3.011-4.308 3.17-5.18 0-.017.019-.059.054-.126.125-.251.329-.47.613-.654.284-.184.533-.31.746-.377a.554.554 0 0 1 .24-.05h4.13l.266.025c.355 0 .63.16.826.478.07.1.12.21.146.327.027.117.045.234.054.352.009.117.013.184.013.2v.177c-.124.687-.44 1.42-.946 2.2-.506.78-1.15 1.622-1.931 2.528-.782.905-1.27 1.5-1.466 1.785-.16.201-.24.386-.24.553 0 .135.071.286.213.453l3.89 4.627c.213.269.32.562.32.88 0 .386-.16.705-.48.956-.32.252-.701.394-1.145.428l-.453.025h-4.05a.855.855 0 0 0-.106.012.862.862 0 0 1-.107.013c-.39 0-.755-.16-1.092-.478-.125-.134-.96-1.123-2.505-2.967a1.387 1.387 0 0 0-.373-.327c-.07.268-.164.654-.28 1.157-.115.503-.2.863-.253 1.081l-.08.427c-.177.587-.55.94-1.119 1.057l-.373.025h-2.61c-1.475 0-2.945-.637-4.41-1.911-1.466-1.275-2.784-2.922-3.957-4.942-1.172-2.02-2.264-4.372-3.277-7.054A1.916 1.916 0 0 1 1 5.838Zm16.013 6.513c-.373 0-.71-.096-1.013-.29-.302-.192-.453-.456-.453-.791V5.487c0-.336-.089-.575-.266-.717-.178-.143-.489-.214-.933-.214l-1.518.05c-.764 0-1.341.126-1.732.378.781.352 1.172.922 1.172 1.71v4.426a1.5 1.5 0 0 1-.533 1.044 1.59 1.59 0 0 1-1.066.414c-.532 0-.94-.243-1.225-.729C8.06 9.871 7.03 7.993 6.356 6.216l-.24-.654-3.544-.025c-.231 0-.36.013-.386.038-.027.025-.04.096-.04.213 0 .151.017.31.053.478l.56 1.409c1.491 3.638 3.112 6.505 4.862 8.6 1.75 2.096 3.468 3.144 5.155 3.144h2.665c.106 0 .186-.03.24-.088.053-.06.097-.172.133-.34l.053-.251.506-2.213c.142-.302.267-.503.373-.604a.975.975 0 0 1 .693-.277c.426 0 .861.243 1.305.73l2.265 2.716c.142.218.293.327.453.327h4.396c.533 0 .8-.126.8-.378a.466.466 0 0 0-.08-.251l-3.864-4.552c-.302-.352-.453-.73-.453-1.131 0-.403.142-.788.427-1.157.23-.336.679-.893 1.345-1.673a37.64 37.64 0 0 0 1.745-2.188c.498-.679.826-1.295.986-1.848l.08-.327a.371.371 0 0 1-.027-.163.574.574 0 0 0-.026-.189h-4.183c-.267.1-.48.252-.64.453l-.16.478c-.444 1.156-1.607 2.942-3.49 5.356a1.892 1.892 0 0 1-1.305.503Z" fill="#231F20"></path></svg><svg fill="none" id="youtube" viewBox="0 0 28 23"><path d="m17.85 11.293-5.236-3.491a.655.655 0 0 0-1.014.545v6.982a.654.654 0 0 0 1.014.546l5.237-3.491a.655.655 0 0 0 0-1.091Zm-4.94 2.814V9.57l3.403 2.27-3.404 2.268Zm12.48-8.563a2.4 2.4 0 0 0-1.452-1.637C20.218 2.478 14.251 2.5 14 2.5c-.25 0-6.218-.022-9.938 1.407A2.4 2.4 0 0 0 2.61 5.544C2.327 6.613 2 8.576 2 11.838c0 3.262.327 5.226.61 6.295a2.4 2.4 0 0 0 1.452 1.636c3.72 1.43 9.687 1.407 9.938 1.407h.076c.753 0 6.317-.043 9.862-1.407a2.4 2.4 0 0 0 1.451-1.636c.284-1.07.611-3.033.611-6.295s-.327-5.225-.61-6.294Zm-1.266 12.261a1.09 1.09 0 0 1-.655.742c-3.49 1.342-9.404 1.32-9.469 1.32-.066 0-5.978.022-9.47-1.32a1.09 1.09 0 0 1-.654-.742c-.261-1.003-.567-2.847-.567-5.967 0-3.12.306-4.963.567-5.967a1.09 1.09 0 0 1 .655-.742C8.02 3.787 13.935 3.81 14 3.81c.066 0 5.978-.022 9.47 1.32a1.092 1.092 0 0 1 .654.742c.262 1.004.567 2.847.567 5.967 0 3.12-.305 4.964-.567 5.967Z" fill="#231F20"></path></svg><svg fill="none" id="zigzag-deskt" viewBox="0 0 1050 23"><path d="M1050 23c-8.22 0-12.51-4.6-15.98-8.3-3.1-3.3-5.39-5.7-10.22-5.7-4.93 0-7.13 2.4-10.23 5.7-3.47 3.7-7.76 8.3-15.979 8.3-8.217 0-12.508-4.6-15.978-8.3-3.104-3.3-5.387-5.7-10.226-5.7-4.839 0-7.122 2.4-10.226 5.7-3.47 3.7-7.761 8.3-15.978 8.3-8.218 0-12.509-4.6-15.979-8.3-3.104-3.3-5.387-5.7-10.226-5.7-4.93 0-7.121 2.4-10.226 5.7-3.469 3.7-7.761 8.3-15.978 8.3-8.217 0-12.509-4.6-15.978-8.3-3.105-3.3-5.387-5.7-10.226-5.7-4.931 0-7.122 2.4-10.226 5.7-3.835 3.7-8.127 8.3-16.344 8.3s-12.509-4.6-15.978-8.3c-3.105-3.3-5.387-5.7-10.226-5.7-4.931 0-7.122 2.4-10.226 5.7-3.47 3.7-7.761 8.3-15.979 8.3-8.217 0-12.508-4.6-15.978-8.3-3.104-3.3-5.387-5.7-10.226-5.7-4.93 0-7.122 2.4-10.226 5.7-3.652 3.7-7.944 8.3-16.161 8.3-8.217 0-12.509-4.6-15.978-8.3-3.105-3.3-5.387-5.7-10.226-5.7-4.931 0-7.122 2.4-10.226 5.7-3.47 3.7-7.761 8.3-15.979 8.3-8.217 0-12.508-4.6-15.978-8.3-3.104-3.3-5.387-5.7-10.226-5.7-4.839 0-7.122 2.4-10.226 5.7C642.6 18.4 638.217 23 630 23c-8.217 0-12.509-4.6-15.978-8.3-3.105-3.3-5.387-5.7-10.226-5.7-4.931 0-7.122 2.4-10.226 5.7-3.47 3.7-7.761 8.3-15.979 8.3-8.217 0-12.508-4.6-15.978-8.3-3.104-3.3-5.387-5.7-10.226-5.7-4.93 0-7.122 2.4-10.226 5.7-3.47 3.7-7.761 8.3-15.978 8.3-8.218 0-12.509-4.6-15.979-8.3-3.104-3.3-5.387-5.7-10.226-5.7-4.839 0-7.121 2.4-10.226 5.7-3.469 3.7-7.761 8.3-15.978 8.3-8.217 0-12.509-4.6-15.978-8.3-3.105-3.3-5.387-5.7-10.226-5.7-4.931 0-7.122 2.4-10.227 5.7-3.469 3.7-7.76 8.3-15.978 8.3-8.217 0-12.508-4.6-15.978-8.3C401.283 11.4 399 9 394.161 9c-4.931 0-7.122 2.4-10.226 5.7-3.47 3.7-7.761 8.3-15.978 8.3-8.218 0-12.509-4.6-15.979-8.3-3.104-3.3-5.387-5.7-10.226-5.7-4.93 0-7.122 2.4-10.226 5.7-3.469 3.7-7.761 8.3-15.978 8.3-8.218 0-12.509-4.6-15.978-8.3-3.105-3.3-5.387-5.7-10.227-5.7-4.839 0-7.121 2.4-10.226 5.7-3.469 3.7-7.76 8.3-15.978 8.3-8.217 0-12.509-4.6-15.978-8.3-3.104-3.3-5.387-5.7-10.226-5.7-4.931 0-7.122 2.4-10.226 5.7-3.47 3.7-7.761 8.3-15.979 8.3-8.217 0-12.508-4.6-15.978-8.3-3.104-3.3-5.387-5.7-10.226-5.7-4.93 0-7.122 2.4-10.226 5.7-3.47 3.7-7.761 8.3-15.978 8.3-8.218 0-12.509-4.6-15.979-8.3-3.104-3.3-5.386-5.7-10.226-5.7-4.93 0-7.121 2.4-10.226 5.7C117.6 18.4 113.217 23 105 23c-8.217 0-12.509-4.6-15.978-8.3C85.917 11.4 83.635 9 78.796 9c-4.93 0-7.122 2.4-10.226 5.7C65.1 18.4 60.809 23 52.59 23c-8.217 0-12.508-4.6-15.978-8.3C33.417 11.4 31.135 9 26.296 9c-4.93 0-7.122 2.4-10.226 5.7C12.509 18.4 8.217 23 0 23v-9c4.93 0 7.122-2.4 10.226-5.7 3.47-3.7 7.761-8.3 16.07-8.3 8.217 0 12.508 4.6 15.978 8.3C45.378 11.6 47.66 14 52.5 14c4.93 0 7.122-2.4 10.226-5.7 3.47-3.7 7.852-8.3 16.07-8.3 8.217 0 12.508 4.6 15.978 8.3C97.878 11.6 100.16 14 105 14c4.93 0 7.122-2.4 10.226-5.7 3.47-3.7 7.761-8.3 15.978-8.3 8.218 0 12.509 4.6 15.979 8.3 3.104 3.3 5.387 5.7 10.226 5.7 4.93 0 7.121-2.4 10.226-5.7 3.469-3.7 7.761-8.3 15.978-8.3 8.217 0 12.509 4.6 15.978 8.3 3.105 3.3 5.387 5.7 10.226 5.7 4.931 0 7.122-2.4 10.226-5.7 3.47-3.7 7.761-8.3 15.979-8.3C244.239 0 248.53 4.6 252 8.3c3.104 3.3 5.387 5.7 10.226 5.7 4.931 0 7.122-2.4 10.226-5.7 3.47-3.7 7.761-8.3 15.978-8.3 8.218 0 12.509 4.6 15.979 8.3 3.104 3.3 5.387 5.7 10.226 5.7 4.93 0 7.122-2.4 10.226-5.7 3.469-3.7 7.761-8.3 15.978-8.3 8.218 0 12.509 4.6 15.978 8.3 3.105 3.3 5.387 5.7 10.226 5.7 4.84 0 7.122-2.4 10.227-5.7 3.469-3.7 7.76-8.3 15.978-8.3 8.217 0 12.509 4.6 15.978 8.3 3.104 3.3 5.387 5.7 10.226 5.7 4.931 0 7.122-2.4 10.226-5.7 3.47-3.7 7.761-8.3 15.979-8.3 8.217 0 12.508 4.6 15.978 8.3 3.104 3.3 5.387 5.7 10.226 5.7 4.93 0 7.122-2.4 10.226-5.7 3.47-3.7 7.761-8.3 15.978-8.3 8.218 0 12.509 4.6 15.978 8.3 3.105 3.3 5.387 5.7 10.227 5.7 4.93 0 7.121-2.4 10.226-5.7 3.469-3.7 7.761-8.3 15.978-8.3 8.217 0 12.509 4.6 15.978 8.3 3.105 3.3 5.387 5.7 10.226 5.7 4.931 0 7.122-2.4 10.226-5.7 3.47-3.7 7.761-8.3 15.979-8.3 8.217 0 12.508 4.6 15.978 8.3 3.104 3.3 5.387 5.7 10.226 5.7 4.93 0 7.122-2.4 10.226-5.7 3.47-3.7 7.761-8.3 15.978-8.3 8.218 0 12.509 4.6 15.979 8.3 3.104 3.3 5.387 5.7 10.226 5.7 4.93 0 7.121-2.4 10.226-5.7C695.191 4.6 699.483 0 707.7 0c8.217 0 12.509 4.6 15.978 8.3 3.105 3.3 5.387 5.7 10.226 5.7 4.931 0 7.122-2.4 10.226-5.7 4.566-3.7 8.857-8.3 17.166-8.3 8.217 0 12.508 4.6 15.978 8.3 3.104 3.3 5.387 5.7 10.226 5.7 4.839 0 7.122-2.4 10.226-5.7 3.47-3.7 7.761-8.3 15.978-8.3 8.218 0 12.509 4.6 15.979 8.3 3.104 3.3 5.387 5.7 10.226 5.7 4.839 0 7.121-2.4 10.226-5.7 3.561-3.7 7.852-8.3 16.161-8.3 8.308 0 12.508 4.6 15.978 8.3 3.104 3.3 5.387 5.7 10.226 5.7 4.839 0 7.122-2.4 10.226-5.7 3.47-3.7 7.761-8.3 15.978-8.3 8.218 0 12.509 4.6 15.979 8.3 3.104 3.3 5.387 5.7 10.226 5.7 4.93 0 7.121-2.4 10.226-5.7 3.469-3.7 7.761-8.3 15.978-8.3 8.217 0 12.509 4.6 15.978 8.3 3.105 3.3 5.387 5.7 10.226 5.7 4.843 0 7.123-2.4 10.223-5.7 3.47-3.7 7.76-8.3 15.98-8.3s12.51 4.6 15.98 8.3c3.1 3.3 5.39 5.7 10.23 5.7v9h.27Z" fill="#F1F1F1"></path></svg><svg fill="none" id="zigzag-fill-desktop-order" viewBox="0 0 1150 34"><path d="M1121.3 0c-14.4 0-14.4 14-28.7 14-14.3 0-14.4-14-28.7-14-14.3 0-14.4 14-28.7 14-14.4 0-14.4-14-28.8-14S992 14 977.7 14C963.3 14 963.3 0 949 0c-14.4 0-14.4 14-28.7 14-14.3 0-14.7-14-29-14-14.4 0-14.4 14-28.7 14-14.3 0-14.5-14-28.8-14-14.4 0-14.4 14-28.7 14-14.4 0-14.4-14-28.8-14s-14.4 14-28.7 14c-14.4 0-14.4-14-28.7-14-14.3 0-14.5 14-28.9 14-14.4 0-14.4-14-28.7-14-14.4 0-14.4 14-28.7 14-14.4 0-14.4-14-28.8-14s-14.4 14-28.7 14c-14.4 0-14.4-14-28.7-14C532 0 532 14 517.7 14 503.3 14 503.3 0 489 0c-14.4 0-14.4 14-28.8 14S445.8 0 431.4 0 417 14 402.6 14 388.2 0 373.8 0 359.4 14 345 14 330.6 0 316.2 0s-14.4 14-28.8 14S273 0 258.6 0s-14.4 14-28.7 14c-14.4 0-14.4-14-28.8-14s-14.4 14-28.8 14-14.4-14-28.8-14-14.4 14-28.8 14S100.3 0 85.9 0c-14 0-14 14-28.4 14C43.1 14 43.1 0 28.8 0 14.5 0 14.4 14 0 14v20h1150V14c-14.4 0-14.4-14-28.7-14Z" fill="#fff"></path></svg><svg fill="none" id="zigzag-fill-desktop" viewBox="0 0 1150 34"><path d="M1168.8 0c-15.65 0-15.65 14-31.19 14-15.54 0-15.65-14-31.2-14-15.54 0-15.65 14-31.19 14-15.65 0-15.65-14-31.31-14-15.65 0-15.65 14-31.19 14-15.655 0-15.655-14-31.198-14-15.652 0-15.652 14-31.196 14-15.543 0-15.978-14-31.522-14-15.652 0-15.652 14-31.195 14-15.544 0-15.761-14-31.305-14-15.652 0-15.652 14-31.195 14-15.653 0-15.653-14-31.305-14s-15.652 14-31.195 14c-15.653 0-15.652-14-31.196-14C715.87 0 715.652 14 700 14c-15.652 0-15.652-14-31.196-14-15.652 0-15.652 14-31.195 14-15.653 0-15.653-14-31.305-14s-15.652 14-31.195 14c-15.653 0-15.652-14-31.196-14-15.652 0-15.652 14-31.196 14-15.652 0-15.652-14-31.195-14-15.652 0-15.652 14-31.305 14-15.652 0-15.652-14-31.304-14s-15.652 14-31.304 14-15.652-14-31.305-14C340.652 0 340.652 14 325 14S309.348 0 293.696 0c-15.653 0-15.653 14-31.305 14S246.739 0 231.087 0s-15.652 14-31.196 14c-15.652 0-15.652-14-31.304-14s-15.652 14-31.304 14C121.63 14 121.63 0 105.978 0S90.326 14 74.674 14 59.022 0 43.37 0C28.152 0 28.152 14 12.5 14-3.152 14-3.152 0-18.696 0-34.239 0-34.348 14-50 14v20h1250V14c-15.65 0-15.65-14-31.2-14Z" fill="#fff"></path></svg><svg fill="none" id="zigzag-fill-tablet" viewBox="0 0 768 24"><path d="M749.783 0c-9.641 0-9.641 9.882-19.216 9.882-9.575 0-9.642-9.882-19.217-9.882-9.574 0-9.641 9.882-19.216 9.882-9.642 0-9.642-9.882-19.284-9.882-9.641 0-9.641 9.882-19.216 9.882-9.642 0-9.642-9.882-19.217-9.882-9.641 0-9.641 9.882-19.216 9.882-9.575 0-9.843-9.882-19.418-9.882-9.641 0-9.641 9.882-19.216 9.882-9.575 0-9.709-9.882-19.284-9.882-9.641 0-9.641 9.882-19.216 9.882-9.642 0-9.642-9.882-19.284-9.882-9.641 0-9.641 9.882-19.216 9.882-9.642 0-9.642-9.882-19.217-9.882-9.574 0-9.708 9.882-19.35 9.882-9.642 0-9.642-9.882-19.217-9.882-9.641 0-9.641 9.882-19.216 9.882-9.642 0-9.642-9.882-19.284-9.882-9.641 0-9.641 9.882-19.216 9.882-9.642 0-9.642-9.882-19.217-9.882-9.641 0-9.641 9.882-19.216 9.882-9.642 0-9.642-9.882-19.217-9.882-9.641 0-9.641 9.882-19.283 9.882-9.642 0-9.642-9.882-19.284-9.882-9.641 0-9.641 9.882-19.283 9.882-9.642 0-9.642-9.882-19.284-9.882-9.641 0-9.641 9.882-19.283 9.882-9.642 0-9.642-9.882-19.283-9.882-9.642 0-9.642 9.882-19.284 9.882S181.791 0 172.15 0c-9.642 0-9.642 9.882-19.217 9.882-9.642 0-9.642-9.882-19.283-9.882-9.642 0-9.642 9.882-19.284 9.882S104.724 0 95.083 0C85.44 0 85.44 9.882 75.799 9.882S66.157 0 56.516 0C47.142 0 47.142 9.882 37.5 9.882 27.858 9.882 27.858 0 18.284 0 8.709 0 8.642 9.882-1 9.882V24h770V9.882c-9.642 0-9.642-9.882-19.217-9.882Z" fill="#fff"></path></svg><svg fill="none" id="zigzag-mobile" viewBox="0 0 320 6"><path d="M320 6c-2.504 0-3.812-1.2-4.87-2.165-.946-.861-1.641-1.487-3.116-1.487-1.503 0-2.171.626-3.117 1.487C307.84 4.8 306.532 6 304.028 6c-2.505 0-3.812-1.2-4.87-2.165-.946-.861-1.641-1.487-3.116-1.487s-2.171.626-3.117 1.487C291.868 4.8 290.56 6 288.056 6c-2.505 0-3.813-1.2-4.87-2.165-.946-.861-1.642-1.487-3.116-1.487-1.503 0-2.171.626-3.117 1.487C275.896 4.8 274.588 6 272.083 6c-2.504 0-3.812-1.2-4.869-2.165-.946-.861-1.642-1.487-3.117-1.487-1.502 0-2.17.626-3.116 1.487C259.812 4.8 258.504 6 256 6s-3.812-1.2-4.87-2.165c-.946-.861-1.641-1.487-3.116-1.487-1.503 0-2.171.626-3.117 1.487C243.84 4.8 242.532 6 240.028 6c-2.505 0-3.812-1.2-4.87-2.165-.946-.861-1.641-1.487-3.116-1.487-1.503 0-2.171.626-3.117 1.487C227.812 4.8 226.504 6 224 6s-3.812-1.2-4.87-2.165c-.946-.861-1.641-1.487-3.116-1.487-1.503 0-2.171.626-3.117 1.487C211.84 4.8 210.532 6 208.028 6c-2.505 0-3.812-1.2-4.87-2.165-.946-.861-1.641-1.487-3.116-1.487s-2.171.626-3.117 1.487C195.84 4.8 194.504 6 192 6s-3.812-1.2-4.87-2.165c-.946-.861-1.641-1.487-3.116-1.487-1.503 0-2.171.626-3.117 1.487C179.84 4.8 178.532 6 176.028 6c-2.505 0-3.812-1.2-4.87-2.165-.946-.861-1.641-1.487-3.116-1.487-1.503 0-2.171.626-3.117 1.487C163.868 4.8 162.56 6 160.056 6c-2.505 0-3.813-1.2-4.87-2.165-.946-.861-1.642-1.487-3.116-1.487-1.475 0-2.171.626-3.117 1.487C147.896 4.8 146.588 6 144.083 6c-2.504 0-3.812-1.2-4.869-2.165-.946-.861-1.642-1.487-3.117-1.487-1.502 0-2.17.626-3.116 1.487C131.923 4.8 130.616 6 128.111 6c-2.504 0-3.812-1.2-4.869-2.165-.946-.861-1.642-1.487-3.117-1.487-1.502 0-2.17.626-3.116 1.487C115.951 4.8 114.643 6 112.139 6s-3.812-1.2-4.869-2.165c-.947-.861-1.642-1.487-3.117-1.487-1.503 0-2.17.626-3.116 1.487C99.979 4.8 98.671 6 96.167 6s-3.812-1.2-4.87-2.165c-.946-.861-1.641-1.487-3.116-1.487s-2.17.626-3.117 1.487C84.007 4.8 82.7 6 80.194 6c-2.504 0-3.811-1.2-4.869-2.165-.946-.861-1.642-1.487-3.116-1.487-1.503 0-2.17.626-3.117 1.487C68.035 4.8 66.727 6 64.222 6c-2.504 0-3.812-1.2-4.869-2.165-.946-.861-1.642-1.487-3.117-1.487-1.502 0-2.17.626-3.116 1.487C52.063 4.8 50.755 6 48.25 6c-2.504 0-3.812-1.2-4.87-2.165-.945-.861-1.64-1.487-3.116-1.487-1.502 0-2.17.626-3.116 1.487C35.84 4.8 34.504 6 32 6c-2.504 0-3.812-1.2-4.87-2.165-.946-.861-1.641-1.487-3.116-1.487-1.503 0-2.17.626-3.117 1.487C19.84 4.8 18.532 6 16.027 6c-2.504 0-3.811-1.2-4.869-2.165-.974-.861-1.67-1.487-3.144-1.487-1.503 0-2.17.626-3.117 1.487C3.812 4.8 2.504 6 0 6V3.652c1.503 0 2.17-.626 3.117-1.487C4.174 1.2 5.482 0 8.014 0c2.504 0 3.812 1.2 4.87 2.165.946.861 1.641 1.487 3.116 1.487 1.503 0 2.17-.626 3.116-1.487C20.174 1.2 21.51 0 24.014 0c2.504 0 3.812 1.2 4.87 2.165.946.861 1.641 1.487 3.116 1.487 1.503 0 2.17-.626 3.117-1.487C36.174 1.2 37.482 0 39.986 0c2.503 0 3.811 1.2 4.869 2.165.946.861 1.641 1.487 3.116 1.487 1.503 0 2.17-.626 3.117-1.487C52.146 1.2 53.454 0 55.959 0c2.504 0 3.811 1.2 4.869 2.165.946.861 1.642 1.487 3.116 1.487 1.503 0 2.17-.626 3.117-1.487C68.118 1.2 69.426 0 71.93 0c2.504 0 3.812 1.2 4.869 2.165.946.861 1.642 1.487 3.117 1.487 1.502 0 2.17-.626 3.116-1.487C84.09 1.2 85.398 0 87.903 0c2.504 0 3.812 1.2 4.87 2.165.945.861 1.64 1.487 3.116 1.487 1.502 0 2.17-.626 3.116-1.487C100.063 1.2 101.37 0 103.875 0c2.504 0 3.812 1.2 4.869 2.165.946.861 1.642 1.487 3.117 1.487s2.17-.626 3.116-1.487C116.035 1.2 117.343 0 119.847 0s3.812 1.2 4.87 2.165c.946.861 1.641 1.487 3.116 1.487 1.503 0 2.17-.626 3.117-1.487C132.007 1.2 133.315 0 135.819 0c2.504 0 3.812 1.2 4.87 2.165.946.861 1.641 1.487 3.116 1.487 1.503 0 2.171-.626 3.117-1.487C147.979 1.2 149.287 0 151.791 0c2.505 0 3.812 1.2 4.87 2.165.946.861 1.642 1.487 3.116 1.487 1.503 0 2.171-.626 3.117-1.487C163.951 1.2 165.259 0 167.763 0c2.505 0 3.813 1.2 4.87 2.165.946.861 1.642 1.487 3.117 1.487 1.502 0 2.17-.626 3.116-1.487C179.923 1.2 181.231 0 183.736 0c2.504 0 3.812 1.2 4.869 2.165.946.861 1.642 1.487 3.117 1.487 1.502 0 2.17-.626 3.116-1.487C195.896 1.2 197.203 0 199.708 0c2.504 0 3.812 1.2 4.869 2.165.946.861 1.642 1.487 3.117 1.487 1.503 0 2.17-.626 3.116-1.487C211.868 1.2 213.176 0 215.68 0s3.812 1.2 4.87 2.165c.946.861 1.641 1.487 3.116 1.487 1.503 0 2.171-.626 3.117-1.487C228.174 1.2 229.482 0 232.014 0c2.504 0 3.812 1.2 4.869 2.165.947.861 1.642 1.487 3.117 1.487s2.17-.626 3.117-1.487C244.174 1.2 245.482 0 247.986 0c2.504 0 3.812 1.2 4.87 2.165.946.861 1.641 1.487 3.116 1.487s2.171-.626 3.117-1.487C260.174 1.2 261.482 0 264.014 0s3.812 1.2 4.869 2.165c.947.861 1.642 1.487 3.117 1.487s2.17-.626 3.117-1.487C276.174 1.2 277.482 0 279.986 0c2.504 0 3.812 1.2 4.87 2.165.946.861 1.641 1.487 3.116 1.487 1.503 0 2.171-.626 3.117-1.487C292.146 1.2 293.454 0 295.958 0c2.505 0 3.812 1.2 4.87 2.165.946.861 1.642 1.487 3.116 1.487 1.475 0 2.171-.626 3.117-1.487C308.118 1.2 309.426 0 311.93 0c2.505 0 3.813 1.2 4.87 2.165.946.861 1.642 1.487 3.117 1.487V6H320Z" fill="#F1F1F1"></path></svg><svg fill="none" id="zigzag-tablet" viewBox="0 0 768 17"><path d="M770 17c-6.042 0-9.197-3.4-11.748-6.135-2.282-2.439-3.96-4.213-7.518-4.213-3.625 0-5.237 1.774-7.519 4.213C740.664 13.6 737.509 17 731.467 17c-6.042 0-9.197-3.4-11.748-6.135-2.282-2.439-3.96-4.213-7.518-4.213s-5.237 1.774-7.519 4.213C702.131 13.6 698.976 17 692.934 17c-6.042 0-9.197-3.4-11.748-6.135-2.282-2.439-3.96-4.213-7.518-4.213-3.625 0-5.236 1.774-7.519 4.213C663.598 13.6 660.443 17 654.401 17c-6.041 0-9.196-3.4-11.747-6.135-2.283-2.439-3.961-4.213-7.519-4.213-3.625 0-5.236 1.774-7.519 4.213C624.797 13.6 621.642 17 615.6 17s-9.197-3.4-11.748-6.135c-2.282-2.439-3.961-4.213-7.518-4.213-3.626 0-5.237 1.774-7.519 4.213C586.264 13.6 583.109 17 577.067 17c-6.042 0-9.197-3.4-11.748-6.135-2.282-2.439-3.96-4.213-7.518-4.213-3.625 0-5.236 1.774-7.519 4.213C547.597 13.6 544.442 17 538.4 17s-9.197-3.4-11.748-6.135c-2.282-2.439-3.961-4.213-7.518-4.213-3.626 0-5.237 1.774-7.519 4.213C509.064 13.6 505.909 17 499.867 17c-6.042 0-9.197-3.4-11.748-6.135-2.282-2.439-3.96-4.213-7.518-4.213s-5.236 1.774-7.519 4.213C470.464 13.6 467.242 17 461.2 17s-9.197-3.4-11.748-6.135c-2.282-2.439-3.961-4.213-7.518-4.213-3.625 0-5.237 1.774-7.519 4.213C431.864 13.6 428.709 17 422.667 17c-6.042 0-9.197-3.4-11.748-6.135-2.282-2.439-3.96-4.213-7.518-4.213-3.625 0-5.236 1.774-7.519 4.213C393.331 13.6 390.176 17 384.134 17c-6.041 0-9.197-3.4-11.748-6.135-2.282-2.439-3.96-4.213-7.518-4.213s-5.236 1.774-7.519 4.213C354.798 13.6 351.643 17 345.601 17c-6.041 0-9.196-3.4-11.747-6.135-2.283-2.439-3.961-4.213-7.519-4.213-3.625 0-5.236 1.774-7.519 4.213C316.265 13.6 313.11 17 307.069 17c-6.042 0-9.197-3.4-11.748-6.135-2.283-2.439-3.961-4.213-7.519-4.213-3.625 0-5.236 1.774-7.519 4.213C277.733 13.6 274.577 17 268.536 17c-6.042 0-9.197-3.4-11.748-6.135-2.283-2.439-3.961-4.213-7.519-4.213-3.625 0-5.236 1.774-7.518 4.213C239.2 13.6 236.045 17 230.003 17c-6.042 0-9.197-3.4-11.748-6.135-2.282-2.439-3.961-4.213-7.519-4.213-3.558 0-5.236 1.774-7.518 4.213C200.667 13.6 197.512 17 191.47 17c-6.042 0-9.197-3.4-11.748-6.135-2.282-2.439-3.961-4.213-7.519-4.213-3.625 0-5.236 1.774-7.518 4.213C162.134 13.6 158.979 17 152.937 17c-6.042 0-9.197-3.4-11.748-6.135-2.282-2.439-3.96-4.213-7.518-4.213-3.625 0-5.237 1.774-7.519 4.213C123.601 13.6 120.446 17 114.404 17c-6.042 0-9.197-3.4-11.748-6.135-2.282-2.439-3.96-4.213-7.518-4.213-3.625 0-5.236 1.774-7.519 4.213C84.464 13.6 81.242 17 75.2 17c-6.042 0-9.197-3.4-11.748-6.135-2.282-2.439-3.96-4.213-7.518-4.213-3.625 0-5.237 1.774-7.519 4.213C45.864 13.6 42.709 17 36.667 17c-6.042 0-9.197-3.4-11.748-6.135-2.35-2.439-4.027-4.213-7.585-4.213-3.625 0-5.237 1.774-7.519 4.213C7.197 13.6 4.042 17-2 17v-6.652c3.625 0 5.236-1.774 7.519-4.213C8.069 3.4 11.225 0 17.334 0c6.041 0 9.196 3.4 11.747 6.135 2.283 2.439 3.961 4.213 7.519 4.213 3.625 0 5.236-1.774 7.519-4.213C46.669 3.4 49.892 0 55.934 0c6.041 0 9.196 3.4 11.747 6.135 2.283 2.439 3.961 4.213 7.519 4.213 3.625 0 5.236-1.774 7.519-4.213C85.269 3.4 88.425 0 94.466 0c6.042 0 9.197 3.4 11.748 6.135 2.283 2.439 3.961 4.213 7.519 4.213 3.625 0 5.236-1.774 7.518-4.213C123.802 3.4 126.958 0 132.999 0c6.042 0 9.197 3.4 11.748 6.135 2.283 2.439 3.961 4.213 7.519 4.213 3.625 0 5.236-1.774 7.518-4.213C162.335 3.4 165.49 0 171.532 0c6.042 0 9.197 3.4 11.748 6.135 2.282 2.439 3.961 4.213 7.519 4.213 3.625 0 5.236-1.774 7.518-4.213C200.868 3.4 204.023 0 210.065 0c6.042 0 9.197 3.4 11.748 6.135 2.282 2.439 3.961 4.213 7.518 4.213 3.626 0 5.237-1.774 7.519-4.213C239.401 3.4 242.556 0 248.598 0c6.042 0 9.197 3.4 11.748 6.135 2.282 2.439 3.96 4.213 7.518 4.213s5.237-1.774 7.519-4.213C277.934 3.4 281.089 0 287.131 0c6.042 0 9.197 3.4 11.748 6.135 2.282 2.439 3.96 4.213 7.518 4.213 3.625 0 5.236-1.774 7.519-4.213C316.467 3.4 319.622 0 325.664 0c6.041 0 9.197 3.4 11.747 6.135 2.283 2.439 3.961 4.213 7.519 4.213 3.625 0 5.236-1.774 7.519-4.213C355 3.4 358.155 0 364.197 0c6.041 0 9.196 3.4 11.747 6.135 2.283 2.439 3.961 4.213 7.519 4.213 3.625 0 5.236-1.774 7.519-4.213C393.533 3.4 396.688 0 402.729 0c6.042 0 9.197 3.4 11.748 6.135 2.283 2.439 3.961 4.213 7.519 4.213 3.625 0 5.236-1.774 7.518-4.213C432.065 3.4 435.221 0 441.262 0c6.042 0 9.197 3.4 11.748 6.135 2.283 2.439 3.961 4.213 7.519 4.213 3.625 0 5.236-1.774 7.518-4.213C470.598 3.4 473.753 0 479.795 0c6.042 0 9.197 3.4 11.748 6.135 2.282 2.439 3.961 4.213 7.519 4.213 3.625 0 5.236-1.774 7.518-4.213C509.131 3.4 512.286 0 518.328 0c6.042 0 9.197 3.4 11.748 6.135 2.282 2.439 3.96 4.213 7.518 4.213 3.625 0 5.237-1.774 7.519-4.213C548.47 3.4 551.625 0 557.734 0c6.041 0 9.196 3.4 11.747 6.135 2.283 2.439 3.961 4.213 7.519 4.213 3.558 0 5.236-1.774 7.519-4.213C587.07 3.4 590.225 0 596.266 0c6.042 0 9.197 3.4 11.748 6.135 2.283 2.439 3.961 4.213 7.519 4.213 3.558 0 5.236-1.774 7.518-4.213C625.67 3.4 628.825 0 634.934 0c6.108 0 9.196 3.4 11.747 6.135 2.283 2.439 3.961 4.213 7.519 4.213 3.558 0 5.236-1.774 7.519-4.213C664.27 3.4 667.425 0 673.466 0c6.042 0 9.197 3.4 11.748 6.135 2.283 2.439 3.961 4.213 7.519 4.213 3.625 0 5.236-1.774 7.518-4.213C702.802 3.4 705.958 0 711.999 0c6.042 0 9.197 3.4 11.748 6.135 2.283 2.439 3.961 4.213 7.519 4.213 3.558 0 5.236-1.774 7.518-4.213C741.335 3.4 744.49 0 750.532 0c6.042 0 9.197 3.4 11.748 6.135 2.282 2.439 3.961 4.213 7.519 4.213V17H770Z" fill="#F1F1F1"></path></svg></svg>