<svg xmlns="http://www.w3.org/2000/svg" width="149" height="72" fill="none" viewBox="0 0 149 72"><path fill="#000" d="M144.2 31.1c-1.5 1-3.2 1.9-4.8 2.8 0-1.7 0-3.5-.6-5l.1-1c.4-3 .7-7-2-9.1-.3-.3-1.2 0-1.9.3l-.5-.4-.2-.7-.4-.2c.3-.4.3-.8-.4-1.1l-1.1-.4-.2-.1-3-.7.7-1c0-.2.3-.3.4-.4l.2-.2.2-.2c.4-.3.8-.9.2-1.2-.6-.2-1.5 0-2 .2-1 .7-1.7 1.4-2.2 2.4-2-.2-4-.2-6.1 0l.1-.4c.2-.6-.9-.5-1.2-.5l-4.7.6c1.4-3.7 3-8.5 1-12.1-1.2-2.1-4-2.6-6.2-2.7-2.4 0-4.9.5-7 1.6-4.8 2.6-7.2 7.6-8.3 13-.5-.8-2.3-.5-2.6.4l-.3 1-.3.6v.2H91l.1-.3.3-.4a131 131 0 0 1 2-6.7c.2-.8-2.6-.4-2.9.4a48 48 0 0 0-1.1 3.5l-.4.3v.1a.8.8 0 0 0-.5-.2v-1c0-.3-2.8 0-2.8.8V15l-.5.3-.2.2-.1.2v.1l-.1.1c-.1.1-.2.3 0 .5s.5.2.7.2v.5h-.6l-.4-.1c0-.4-.7-.5-1.4-.3v-.1l-.2-1.8.7-.3c.2 0 .3-.2.3-.4v-.2c0-.2-.4-.2-.5-.2h-.6l-.1-3.8c0-.8-2.9-.3-2.9.8 0 1.7 0 3.5.2 5.2h-.3v-1.5c0-1-1.3-1.2-2-.8.2-.3.4-.6.3-1-.4-1.3-.8-2.7-1-4.2-.2-1.4-3-.7-2.8.8.2 1.5.6 2.9 1 4.2.2.8 1.3 1 2.1.5-.2.2-.4.5-.4.8v.6c-.3-.3-.5-.3-.9-.3-1.1 0-1.7.9-1.4 1.5l-.5-.1c-.4-1.2-.7-2.5-.7-3.8 0-.8-1.3-1-2.1-.6v-.2c-.4-.8-.6-1.7-.8-2.5-.3-1.3-3.2-.6-2.8.8l.5 1.9H68c-.3 0-.6.2-1 .4-.8 0-1.8.5-1.8 1.1l.2 1.4-1.5.2-.6-2.4c0-.8-1.6-.8-2.3-.3-.8-2-1.8-3.9-3.1-5.7A11.5 11.5 0 0 0 46.5 3c-1.9.4-3.7 1.2-5 2.5-1.2 1.4-1.4 3.1-1.2 4.8.2 1.5.6 4 1.6 5.9l-1 .1a2 2 0 0 0-.7.4l-5.9-.1c-4.2-.2-8.3-.9-12.5-.7-1 0-1.6.7-1.6 1.3-1 .5-1.7 1.3-2 2.3-1.8-1.1-3.6-2.3-5.4-3.2-.7-.4-3.3.7-2.3 1.2 1.8.9 3.6 2 5.3 3.1.5.3 1.3.1 1.8 0l.2-.2c-.3 1.4-.2 3.1.2 4.5l.2.3v1.2c-.4.2-.7.5-.8.8-.2 1.3-.3 2.7-.3 4.1-.3.2-.5.5-.5.8-.2 3.3 0 6.6.5 9.9.2 2.6.7 5.2 1.2 7.9l.2 1.2a8 8 0 0 0-.2 3.5c-.9.2-1.7.9-1.2 1.6a8 8 0 0 0 2.6 2.5c-.6 0-1.4.1-1.9.6l-2.5 2.3c-.4.4-.3.9.3 1 .7.3 1.5 0 2-.4l2.5-2.3c.2-.2.3-.5.2-.7 3.3 1.7 7.3 1.3 11.2 1-.9 1.5-1.5 3.2-2.2 4.9-.3.7 2.5.4 2.8-.4.6-1.7 1.2-3.3 2.1-4.9l11.3.1c.1.2.4.3.7.3a36 36 0 0 0 9.8-.7l14.5-.8c7.5-.2 15.2-.3 22.7-.3l.3.3c.3.3.6.3 1 .3h.2l2.1.1h.7l2.3.2.8.4 11.4.7c.1.2.6.3.9.3 7.1.1 15.4 2.8 21.7-1.7.5-.4.3-.8-.3-1h-.3c1.2-2.7 2.2-5.5 3-8.4.3-.2.5-.5.5-1 0-1.1.2-2.3.4-3.5l.4-2.6c.4-2.2.8-4.4 1-6.5a44 44 0 0 0 6.7-3.7c1.6-1.2-.8-1.9-1.8-1.2ZM88.4 16.3l-.1.1c0-.3 0-.6.2-.9l-.1.8Z"/><path fill="#000" d="M63.7 12.5c.1.2.6.2.8.2.4 0 .8 0 1.1-.2.4-.2 1.1-.5.8-1l-1-1.8c0-.2-.6-.2-.8-.2-.4 0-.8 0-1 .2-.5.2-1.2.6-.9 1 .3.7.6 1.4 1 1.8ZM20.8 10.9c.2.6 1.2.6 1.7.5.5-.1 1.4-.6 1.2-1.3-.2-.6-.4-1.3-1-1.8-.4-.5-1.2-.4-1.9-.2-.4.2-1.2.8-.7 1.3.4.6.5.9.7 1.5ZM31 13.8c.7 0 3-1.3 1.1-1.3-.9 0-3.1 1.3-1.2 1.3ZM123.4 12.3l1.1-.1c.3-.1.7-.2 1-.5l1-1.2v-.6l-.9-.3c-.4 0-.8 0-1 .2-.4 0-.7.3-.9.6 0 .2-.2.4-.4.5l-.2.2-.3.6c.1.4.3.5.6.6ZM136.8 17.6c.6-.1 1.4-.2 2-.7 1.2-1.1 2.5-2.2 3.5-3.6.3-.4-1-.2-1-.2-.6.1-1.4.3-1.8.7-.9 1.3-2.2 2.3-3.4 3.4-.5.4.4.4.7.4ZM147.7 44.3h-5c-.6 0-1.5.5-1.6 1.1 0 .7.8 1 1.3 1h5c.6 0 1.5-.6 1.6-1.2 0-.7-.7-.9-1.3-.9ZM57.4 60.1c-.5.1-1.4.3-1.6.8l-1.4 3.9c-.2.7 2.6.3 2.8-.5.4-1.3.8-2.6 1.4-3.9.2-.5-1-.3-1.2-.3ZM62 62.7c-.3 0-.7 0-1 .2-.3 0-.7.2-1 .4-.1 0-.3.2-.3.4v.3l-.1.3v.3h.7c.4 0 .7 0 1.1-.2l.8-.4.3-.5V63c0-.3-.4-.3-.5-.3ZM117.5 66.3c-.4-.6-3 .3-2.8.8.8 1.6 1.9 3.1 2.9 4.7.4.7 3-.4 2.8-.8-1-1.6-2.1-3-3-4.7ZM121.5 64c-.3-.6-1.1-.6-1.6-.4-.4 0-1.5.6-1.2 1.2l1.2 2.2c.3.6 1.1.6 1.6.4.4 0 1.5-.6 1.2-1.2l-1.2-2.2ZM5.7 42.7c-1.5.3-3 .5-4.5 1-.5 0-1.3.5-1.2 1.2.2.7 1.1.7 1.7.6l4.5-1c.6 0 1.4-.7 1.3-1.3-.3-.6-1.3-.6-1.8-.5Z"/><path fill="#fff" d="M44.1 39.7c-.1-2.7-.5-5.3-.5-8 0-2.2.4-4.4-.4-6.5v-.7c.3-1.1-3.2-.5-3.7.5-.3.3-.5.6-.4 1v.3c-.6 3.1-1.5 6.3-2.6 9.3l-1.3 3.6-1.7-3.4c-1.4-3.4-2.6-6.9-4.3-10.1.2-1.5-3.2-1.4-4 0a8.4 8.4 0 0 0-.3 5.2c.3 2 .4 4 .4 6.1 0 4 .4 8 .4 11.9-.4.4-.5.9-.1 1.4l.6.5c.9.7 3.5.1 3.5-1.2 0-4.2-.3-8.2-.4-12.4V36l.2.4a28 28 0 0 0 2.2 4.7c1 1.5 1.3 3 1.8 4.6-.2.2-.3.5-.2.7 0 .2.1.3.3.4.6.6 2 .3 2.5 0l.9-.4c.3-.2.9-.7.7-1.2l-.1-.3c.5-1.3.7-2.5 1-4 .3-1.3.8-2.7 1.3-4 0 .5 0 1.2.2 1.8.2 2.6 0 5 0 7.6 0 .9 0 1.6.2 2.5l.3 1.8c-.6.6-.4 1.3.4 1.4.9.2 2 0 2.8-.7 1.2-1 .6-2.8.4-4.2-.6-2.4-.1-5-.1-7.4ZM52.6 40.4c-.1-2-.8-3.9-.8-5.8 0-2.3.2-4.6-.3-6.9 0-.6-4 .1-4 1.1.3 2.1.2 4.3.2 6.4 0 2 .5 3.8.7 5.9.3 2 0 4.1.1 6.2.1 1 .8 2.8.1 3.5-.4.5 1.5.3 1.6.3.8 0 1.9-.4 2.4-1 .7-.7.2-2.3 0-3.3-.1-2.3 0-4.3 0-6.4ZM69.2 37c-2.1-2.7-6-.8-8.7-1.6-1.4-.3-1.4-2.2-1.4-3.3l-.3-4.2c-.1-1 0-2 .8-2.8l.8-.3 1.1-.1c1.6-.1 4.7.2 4.1 2.5-.3 1 3.7.4 4-.6 1.2-4.6-7.5-3.7-9.9-3.1-2.2.6-4.7 1.9-4.8 4.3-.1 1.2.3 2.4.3 3.6 0 1.4-.2 2.8.3 4.1 1 3 5.6 1.6 7.8 1.8 4 .3 2.7 5.5 2.8 8 0 1.2 1.3 3.4.2 4.4-.6.7-2 .7-2.8.8-.8 0-2.2.2-2.8-.5-1-1.4.1-3.8 0-5.5-.3-1-4.3 0-4.1 1 .3 2.7-1.4 6.1 2.4 6.6 2.5.3 5.2-.2 7.6-.9 1.3-.4 2.4-1 3.4-1.7 1-1 .7-2.4.4-3.6-.7-3 .7-6.3-1.2-8.9ZM86.8 36.8c-.1-3.7-.7-7.5-.7-11.2 0-2-4-1.3-4 .3 0 3.5.5 7 .7 10.7v.2l-6 .2c.2-4.6-.6-9.2-.4-13.8 0-.6-4 0-4 1-.2 4.5.6 9 .5 13.4l-.3 6.4.3 3.3c0 1 .5 2.4.2 3.3-.2.7 3.6.2 4-.7.4-1.8-.3-4-.5-5.9-.2-1.6 0-3.4.1-5.2 2 0 4.1-.3 6.2 0l.3 4.2.2 3.4c0 1 0 2.5-.2 3.5-.8 2 3.2 1.8 3.8.4.7-2 .5-4.2.4-6.2-.2-2.3-.6-4.8-.6-7.3ZM103.9 41.4c-1-2.8-2.4-5.2-3.6-7.8l3-5.9c.8-1.7 1.5-3.8 3.1-5 .6-.5.6-.9-.3-1-.9 0-2.1.2-2.8.7a11.2 11.2 0 0 0-3.2 4.3l-3 6c-.2 0-.3.3-.3.4-.5.3-.8.8-.6 1.3L93.7 39c-.3-5.5-1-11-1.2-16.6 0-1.3-4-.5-4 1.1.2 6.8 1.2 13.6 1.3 20.5v.1c-.3.3-.2.5.1.6l-.2 5.3c-.5.7.5 1 1.1 1h.1c.7 0 2.6-.3 2.7-1.3.2-2.1.3-4.2.2-6.3 1.6-1.6 3-3.6 4.2-5.6a26 26 0 0 1 2 4.6c.9 2.7 2.3 5.2 3.2 8 .5 1.7 4.5.6 4-1.1-.9-2.7-2.3-5.3-3.3-8ZM127.9 36.7c-.2-.8-1.5-.9-2.4-.8v-1c0-2.6-.2-5.3-.4-8-.2-2.4-1.6-3.3-4-3.2-2.4.1-5.3.5-7.6 1.4a7 7 0 0 0-4.7 5.6c-.6 3 .2 6.2.4 9.2.2 3.4.1 7 .1 10.5 0 .5 4 0 4-1.1V38.5c1.4-.6 3.7 0 5 .1 1.2.1 2.3-.2 3.4-.3l.2 7c0 1.1.5 3.5-.4 4.5-.4.5 1.5.3 1.6.3.8-.1 1.8-.4 2.3-1.1 1-1.1.5-3.8.4-5.2v-5.7c1 .2 2.3-.6 2-1.4Zm-15-.2-.2-3.7c-.2-2.4 0-5.5 2.3-7 .6-.4 1.7-.3 2.4-.4 1-.2 2-.4 2.9.2 1.2.8 1 3.6 1 4.8l.2 6-1.7.1c-2.3 0-4.6-.4-6.8 0ZM49.1 25c.5-.1 1.1-.2 1.5-.5l.3-.2c.5-.3 1-.8.7-1.4-.5-1-.4-2.3-.4-3.3s-1-1.3-1.8-1.2c-.7 0-2.2.6-2.2 1.5l.1 3v.3c-.2.2 0 .4 0 .6v.4l.4.5c.4.3 1 .3 1.4.3Z"/></svg>