<svg xmlns="http://www.w3.org/2000/svg" width="114" height="46" fill="none" viewBox="0 0 114 46"><path fill="#000" d="M110.9 41.8c4.4 1 .8-35.8 0-38.2-2-6.6-26.8-2.1-32.3-1.7-12.8 1-25.3-1-37.8-.4-6.2.3-35-1.8-37.7 2-5 7.2-2.7 25.7-1.3 35-4 .8 2.3 4.2 3.1 5 6.4 2.1 16.5-.3 23.1.3 15.5 1.5 32-2.2 47.6-1 4.5 1.1 9.7 1 14.3 1.2 3.5 5.6 19.8-2.4 21-2.2.5.1-.1 0 0 0Z"/><path fill="#fff" d="M26.2 24.3c0-2.4-.5-5-.5-7.5 0-2.1.4-4.2-.3-6.2l.1-.7c.2-1-3-.5-3.6.4-.3.3-.5.6-.4.9l.1.2c-.6 3-1.5 6-2.5 8.9l-1.2 3.3-1.6-3.1c-1.3-3.3-2.5-6.6-4.1-9.7.2-1.5-3-1.3-3.8 0a7.4 7.4 0 0 0-.4 4.9c.3 1.9.3 3.8.4 5.8 0 3.7.3 7.4.4 11.2-.3.4-.4.8 0 1.3l.4.5c1 .7 3.4.1 3.4-1.2 0-3.9-.3-7.8-.4-11.6v-1.1s0 .3.2.4c.6 1.5 1.2 3 2 4.3.9 1.4 1.3 3 1.8 4.4-.2.2-.3.4-.2.7 0 .2 0 .3.2.3.6.5 1.7.3 2.4 0 .3 0 .5-.2.8-.4.3-.2.8-.6.7-1v-.4l.8-3.7a25 25 0 0 1 1.2-3.8l.1 1.8c.2 2.3 0 4.7 0 7.1l.2 2.3.3 1.8c-.6.5-.4 1.2.4 1.4 1 .2 2 0 2.6-.7 1.1-1 .6-2.7.3-4-.3-2 .3-4.5.2-6.8ZM34.2 25c-.1-1.8-.7-3.6-.7-5.5 0-2.2.2-4.4-.1-6.5-.1-.7-3.8 0-3.7 1 .3 2 .2 4 .2 6 0 1.9.4 3.6.7 5.5.3 2-.1 4 0 6 .2.8.8 2.5.2 3.3-.4.5 1.4.3 1.5.3.7 0 1.7-.4 2.2-1 .6-.8.2-2.3 0-3.2-.4-1.9-.2-4-.3-5.9ZM49.8 21.9c-2-2.6-5.7-.7-8.2-1.5-1.3-.4-1.3-2.2-1.3-3.2 0-1.4 0-2.6-.3-4 0-1 0-2 .7-2.7l.8-.3 1-.1c1.5-.1 4.4.2 3.8 2.4-.3 1 3.5.4 3.8-.6 1.2-4.4-7-3.5-9.3-3-2 .7-4.4 1.9-4.5 4.3-.1 1.2.3 2.3.3 3.4 0 1.3-.2 2.6.3 3.9 1 2.7 5.2 1.5 7.4 1.7 3.7.3 2.6 5.1 2.6 7.4 0 1.2 1.2 3.3.3 4.3-.7.6-2 .7-2.7.7-.8.1-2 .3-2.6-.4-.9-1.3.1-3.6 0-5-.2-1-4-.2-3.8 1 .3 2.4-1.3 5.7 2.3 6.2 2.3.3 5-.2 7.2-.9 1-.4 2.2-.9 3-1.7 1-.9.8-2.2.5-3.4-.8-3 .5-6.2-1.3-8.5ZM66.4 21.7c-.1-3.6-.8-7.1-.8-10.7 0-2-3.8-1.2-3.8.3 0 3.4.5 6.8.6 10.2v.2l-5.6.2c.2-4.4-.6-8.8-.4-13.1 0-.6-3.7-.1-3.7 1-.2 4.2.6 8.5.4 12.7l-.2 6 .3 3.1c0 1 .5 2.2.2 3.1-.2.7 3.4.3 3.7-.7.5-1.7-.2-3.8-.4-5.5-.2-1.6 0-3.3.1-5 2 0 4-.3 5.8 0a50934.7 50934.7 0 0 1 .5 7.2c0 1 .1 2.4-.2 3.3-.7 2 3 1.8 3.6.3.7-1.8.5-4 .4-5.8-.1-2.2-.5-4.6-.5-6.8ZM82.4 26c-.9-2.7-2.3-5-3.4-7.4 1-2 2-3.7 2.8-5.6.8-1.7 1.4-3.6 3-4.8.5-.4.5-.8-.3-1A4 4 0 0 0 82 8a9.5 9.5 0 0 0-3 4L76.1 18l-.2.4c-.5.3-.7.7-.6 1.2-.8 1.5-1.5 3-2.4 4.3-.3-5.2-1-10.4-1.1-15.7 0-1.2-3.8-.5-3.7 1 .2 6.5 1.2 13 1.2 19.4-.3.3-.2.5 0 .6l-.1 5c-.4.7.4 1.1 1 1.1.8 0 2.6-.3 2.7-1.3.2-2 .2-4 .2-6 1.5-1.6 2.7-3.4 3.8-5.2.7 1.3 1.4 2.7 2 4.2.7 2.6 2.1 5 3 7.6.4 1.7 4.2.7 3.7-1-1-2.6-2.3-5-3.2-7.6ZM104.9 21.6c-.2-.8-1.4-.8-2.3-.7v-1c0-2.5-.2-5.1-.4-7.6-.2-2.3-1.5-3.2-3.8-3.1-2.3 0-5 .5-7.1 1.3-2.5 1-4 2.8-4.3 5.4-.5 2.9.2 5.9.4 8.7v10c0 .5 3.8 0 3.8-1v-7.9l-.1-2.3c1.3-.5 3.5 0 4.8.1 1.1.1 2.1-.2 3.1-.3l.2 6.6c0 1.1.5 3.4-.3 4.3-.4.5 1.4.3 1.5.3.8 0 1.7-.4 2.2-1 1-1 .4-3.6.4-4.9v-5.3c.9-.1 2-.8 1.9-1.6Zm-14-.2-.2-3.6c-.2-2.2 0-5.3 2.2-6.6.6-.4 1.6-.3 2.2-.4 1-.2 2-.4 2.7.2 1.1.8 1 3.5 1 4.6l.2 5.7h-1.6c-2.2 0-4.4-.3-6.4 0ZM31 10.4c.5 0 1-.2 1.4-.5l.2-.2c.5-.3.9-.8.7-1.3-.5-1-.4-2.1-.4-3.2 0-1-1-1.2-1.7-1.1-.7 0-2.1.6-2.1 1.4v4.1l.5.5c.5.3 1 .3 1.4.3Z"/></svg>