<svg xmlns="http://www.w3.org/2000/svg" width="86" height="35" fill="none" viewBox="0 0 86 35"><path fill="#000" d="M4.5 26.3c0-3.5-.3-6.9-.4-10.4v-1l.1.4c.5 1.4 1.1 2.7 1.8 4 .7 1.1 1.1 2.5 1.5 3.8-.2.2-.3.4-.2.6 0 .2.1.2.2.3.5.5 1.5.2 2.1 0l.7-.4c.3-.2.7-.6.6-1v-.2l.7-3.3c.2-1.2.7-2.3 1.1-3.5l.1 1.6c.2 2.1 0 4.3 0 6.4 0 .7 0 1.4.2 2.1.1.3.3 1.5.2 1.6-.5.5-.4 1.1.3 1.2.8.2 1.8 0 2.3-.6 1-.9.5-2.4.3-3.6-.4-2 .1-4.2 0-6.2 0-2.3-.4-4.5-.4-6.8 0-1.8.3-3.7-.3-5.5l.1-.6c.2-.9-2.8-.4-3.2.4-.3.2-.4.5-.3.8l.1.2a71 71 0 0 1-2.2 8l-1 3-1.5-2.9C6.2 11.8 5.2 9 3.8 6.1 4 4.8 1.1 5 .5 6.1a7.4 7.4 0 0 0-.4 4.4c.3 1.7.3 3.4.3 5.1 0 3.3.3 6.7.4 10-.3.3-.4.7 0 1.2 0 .2.2.3.4.5 1.2.7 3.3.2 3.3-1ZM22.7 8c0-.7-3.4 0-3.3.8.3 1.8.2 3.6.1 5.4 0 1.7.4 3.3.6 5 .2 1.7 0 3.5.1 5.2.1.8.6 2.3.1 3-.4.4 1.2.3 1.3.3.6 0 1.5-.3 2-.9.5-.7.1-2 0-2.8-.4-1.7-.2-3.5-.3-5.3 0-1.7-.6-3.3-.7-4.9.3-2 .4-3.9.1-5.9ZM26 14.6c.8 2.5 4.5 1.3 6.5 1.5 3.2.2 2.3 4.6 2.3 6.6 0 1.1 1 3 .2 3.8-.5.6-1.7.6-2.4.6-.7.1-1.9.3-2.3-.4-.8-1.2.1-3.2 0-4.6-.2-.8-3.5 0-3.4 1 .3 2.1-1.2 5.1 2 5.5 2.1.2 4.4 0 6.3-.8 1-.3 2-.8 2.7-1.5 1-.8.6-2 .4-3-.6-2.5.6-5.3-1-7.5-1.7-2.3-5-.7-7.2-1.3-1.2-.2-1.2-1.8-1.2-2.8 0-1.2 0-2.3-.2-3.5 0-.9 0-1.8.6-2.4l.7-.3h1c1.2-.2 3.8.1 3.3 2-.2 1 3 .4 3.3-.5 1-3.9-6-3-8.2-2.6-1.9.5-3.9 1.6-4 3.7l.3 3c0 1.2-.3 2.4.2 3.5ZM40.3 16.5l-.2 5.4c0 1 .1 1.8.3 2.8.1.8.4 2 .2 2.8-.2.6 3 .2 3.3-.6.5-1.5-.2-3.4-.3-4.9l.1-4.4a29 29 0 0 1 5.1 0l.3 3.5.2 3c0 .8.1 2-.2 2.8-.7 1.7 2.7 1.6 3.1.3.6-1.6.4-3.5.3-5.2-.3-2.2-.6-4.2-.6-6.3 0-3.2-.6-6.3-.6-9.5 0-1.7-3.3-1-3.3.3 0 3 .4 6 .6 9.1v.2l-4.9.2c.2-3.9-.5-7.8-.4-11.7 0-.5-3.3 0-3.3 1-.2 3.7.4 7.4.3 11.2ZM54.4 21.8c-.3.3-.2.4 0 .5 0 1.5 0 3-.2 4.4-.4.6.4 1 1 1s2.2-.3 2.3-1c.2-1.9.2-3.6.2-5.4 1.3-1.4 2.4-3 3.4-4.7.6 1.2 1.2 2.5 1.7 4 .7 2.2 2 4.3 2.6 6.7.5 1.5 3.8.6 3.3-.9-.7-2.3-1.9-4.5-2.6-6.8-.8-2.3-2-4.4-3-6.6l2.5-5c.7-1.5 1.2-3.2 2.6-4.3.5-.4.5-.8-.2-.8s-1.7.2-2.3.6c-1.3 1-2 2.2-2.7 3.6l-2.5 5.1-.2.4c-.4.3-.7.6-.5 1.1l-2 4c-.4-4.8-.9-9.4-1-14 0-1.2-3.4-.5-3.4.8.2 5.7 1 11.5 1 17.3ZM86 15.6c-.3-.7-1.3-.7-2-.6v-.8c0-2.2 0-4.5-.3-6.8-.2-2-1.3-2.8-3.3-2.7-2 .1-4.4.4-6.3 1.2a6 6 0 0 0-3.8 4.8c-.5 2.5.2 5.2.3 7.8l.1 9c0 .4 3.3 0 3.3-1v-9c1.1-.6 3 0 4.2 0 1 .1 1.8 0 2.7-.2l.2 6c0 1 .4 3-.3 3.7-.4.4 1.2.3 1.3.3.7 0 1.5-.3 2-.9.7-.9.3-3.2.2-4.3v-4.8c.7-.4 1.8-1 1.6-1.7Zm-6.7-.2c-1.9 0-3.8-.3-5.7 0l-.3-3.2c0-2 .1-4.7 2-5.9.4-.3 1.3-.3 2-.4.7 0 1.5-.3 2.3.2 1 .7.8 3.1.8 4.1l.3 5.1-1.4.1ZM19.1 4.1l.1.5V5l.4.4c.3.2.7.2 1.1.2.4 0 1-.2 1.2-.4l.2-.2c.4-.3.8-.7.6-1-.4-1-.4-2-.3-3 0-.8-.8-1-1.5-1-.6.1-1.8.5-1.8 1.3l.1 2.5v.3ZM80.6 33.3c-1.6-.6-3.3-.6-4.9-.8l-4.9-.6-5 .1-4.9.3c-6.5.3-13 .3-19.5.1-6.5 0-13-.5-19.6-.5l-9.9.3c-1.6.3-3.2.5-4.9 1-1.6.3-3 .8-4.8 1 1.6.3 3.3.2 5 .2l5 .2c3.1-.2 6.4-.2 9.6-.3 6.5 0 13 .3 19.6.5 6.5.1 13.1.2 19.7 0l5-.4h4.7l5-.6c1.6-.2 3.1-.6 4.8-.5h.1v-.6.6Z"/></svg>